<?xml version="1.0" encoding="UTF-8"?>
<svg id="Layer_1" data-name="Layer 1" xmlns="http://www.w3.org/2000/svg" viewBox="0 0 773.84 119.9">
  <defs>
    <style>
      .cls-1 {
        fill: #2f80ff;
      }

      .cls-2 {
        fill: #f4f4f5;
      }
    </style>
  </defs>
  <g>
    <polygon class="cls-1" points="180.61 116.44 135.16 43.13 134.87 42.65 134.31 42.65 117.79 42.65 117.25 42.65 116.96 43.11 81.87 97.26 1.63 0 0 1.16 71.71 117.49 72 117.97 72.56 117.97 90.97 117.97 91.52 117.97 91.81 117.51 126.04 64.98 160.25 117.51 160.55 117.97 161.09 117.97 179.76 117.97 181.55 117.97 180.61 116.44"/>
    <g>
      <polygon class="cls-2" points="248.72 18.01 246.99 18.01 227.24 18.01 226.67 18.01 226.38 18.51 177.66 102.42 176.91 103.67 176.63 104.12 176.85 104.6 182.66 117.38 182.93 117.97 183.57 117.97 190.24 117.97 190.81 117.97 191.1 117.47 247.85 19.51 248.72 18.01"/>
      <polygon class="cls-2" points="277.2 18.51 276.91 18.01 276.34 18.01 257.74 18.01 257.16 18.01 256.87 18.51 199.73 116.47 198.85 117.97 200.59 117.97 220.55 117.97 221.13 117.97 221.42 117.46 267.04 37.18 312.65 117.46 312.94 117.97 313.52 117.97 333.48 117.97 335.22 117.97 334.34 116.47 277.2 18.51"/>
      <polygon class="cls-2" points="297.13 18.01 296.13 18.01 296.13 19.01 296.13 34.22 296.13 35.22 297.13 35.22 342.32 35.22 342.32 116.97 342.32 117.97 343.32 117.97 360.45 117.97 361.45 117.97 361.45 116.97 361.45 35.22 406.64 35.22 407.64 35.22 407.64 34.22 407.64 19.01 407.64 18.01 406.64 18.01 297.13 18.01"/>
      <polygon class="cls-2" points="414.93 18.01 413.93 18.01 413.93 19.01 413.93 34.22 413.93 35.22 414.93 35.22 460.11 35.22 460.11 116.97 460.11 117.97 461.11 117.97 478.24 117.97 479.24 117.97 479.24 116.97 479.24 35.22 524.43 35.22 525.43 35.22 525.43 34.22 525.43 19.01 525.43 18.01 524.43 18.01 414.93 18.01"/>
      <path class="cls-2" d="M772.19,34.87c-1.23-4.33-3.65-7.82-7.19-10.39-3.37-2.44-8-4.11-14.16-5.09-5.69-.91-13.23-1.37-22.4-1.37h-82.4c-8.12,0-14.73,6.61-14.73,14.73v36.45c0,6.68-.24,12.25-.7,16.56-.43,4.03-1.22,7.22-2.34,9.49-.97,1.98-2.31,3.4-4.07,4.35-2.02,1.08-4.76,1.81-8.15,2.15-3.77.39-8.51.58-14.08.58h-21.77c-5.53,0-10.26-.2-14.05-.58-3.41-.35-6.16-1.07-8.18-2.15-1.77-.95-3.1-2.37-4.07-4.35-1.12-2.27-1.91-5.46-2.34-9.49-.46-4.34-.7-9.91-.7-16.56V18.01h-19.13v51.18c0,10.13.69,18.5,2.04,24.9,1.45,6.87,4.1,12.29,7.87,16.08,3.78,3.8,9,6.43,15.53,7.8,6.04,1.27,13.79,1.92,23.03,1.92h21.77c9.24,0,16.99-.64,23.03-1.92,6.52-1.37,11.75-4,15.53-7.8,3.77-3.8,6.43-9.21,7.88-16.08,1.35-6.4,2.03-14.78,2.03-24.9v-33.61h75.77c7.01,0,12.69.19,16.86.55,3.75.33,6.52.97,8.22,1.88,1.31.7,2.08,1.62,2.51,2.97.6,1.91.91,4.6.91,8v2.4c0,3.16-.3,5.72-.9,7.6-.43,1.35-1.25,2.33-2.59,3.08-1.7.96-4.47,1.65-8.22,2.06-4.14.44-9.79.67-16.79.67h-48.4c-8.26,0-14.99,6.72-14.99,14.99v38.18h19.13v-35.6h46.13c9.2,0,16.77-.52,22.49-1.53,6.16-1.09,10.82-2.83,14.26-5.32,3.61-2.62,6.07-6.11,7.33-10.38,1.12-3.8,1.69-8.42,1.69-13.73v-2.4c0-5.55-.55-10.3-1.65-14.12Z"/>
    </g>
  </g>
  <path class="cls-2" d="M749.51,103.7h-6.72l3.36-7.64,3.36,7.64Z"/>
</svg>