<svg width="150" height="23" viewBox="0 0 150 23" fill="none" xmlns="http://www.w3.org/2000/svg">
<g clip-path="url(#clip0_473_1123)">
<path d="M35.0092 22.3363L26.1992 8.27348L26.143 8.1814H26.0345H22.8322H22.7276L22.6714 8.26964L15.8696 18.657L0.315957 0L0 0.222519L13.9002 22.5377L13.9564 22.6298H14.0649H17.6335H17.7401L17.7963 22.5415L24.4314 12.4649L31.0626 22.5415L31.1208 22.6298H31.2254H34.8444H35.1914L35.0092 22.3363Z" fill="#2F80FF"/>
<path d="M48.2111 3.45459H47.8758H44.0475H43.937L43.8808 3.5505L34.437 19.6467L34.2916 19.8864L34.2373 19.9728L34.2799 20.0648L35.4062 22.5164L35.4585 22.6296H35.5825H36.8754H36.9859L37.0421 22.5337L48.0425 3.74233L48.2111 3.45459Z" fill="#2D2D2D"/>
<path d="M53.7322 3.5505L53.676 3.45459H53.5655H49.9601H49.8476L49.7914 3.5505L38.7155 22.3418L38.5449 22.6296H38.8822H42.7512H42.8636L42.9199 22.5317L51.7628 7.1319L60.6037 22.5317L60.66 22.6296H60.7724H64.6414H64.9787L64.8081 22.3418L53.7322 3.5505Z" fill="#2D2D2D"/>
<path d="M57.5952 3.45459H57.4014V3.64642V6.5641V6.75592H57.5952H66.3548V22.4377V22.6296H66.5486H69.8691H70.0629V22.4377V6.75592H78.8225H79.0163V6.5641V3.64642V3.45459H78.8225H57.5952Z" fill="#2D2D2D"/>
<path d="M80.4292 3.45459H80.2354V3.64642V6.5641V6.75592H80.4292H89.1868V22.4377V22.6296H89.3807H92.7011H92.8949V22.4377V6.75592H101.655H101.848V6.5641V3.64642V3.45459H101.655H80.4292Z" fill="#2D2D2D"/>
<path d="M149.68 6.68878C149.441 5.85818 148.972 5.1887 148.286 4.69571C147.633 4.22765 146.735 3.9073 145.541 3.71931C144.438 3.54475 142.977 3.45651 141.199 3.45651H125.227C123.653 3.45651 122.372 4.72448 122.372 6.28211V13.2742C122.372 14.5556 122.325 15.6241 122.236 16.4508C122.153 17.2239 122 17.8358 121.783 18.2713C121.594 18.6511 121.335 18.9235 120.994 19.1057C120.602 19.3129 120.071 19.4529 119.414 19.5181C118.683 19.593 117.764 19.6294 116.685 19.6294H112.465C111.393 19.6294 110.476 19.591 109.741 19.5181C109.08 19.451 108.547 19.3129 108.156 19.1057C107.813 18.9235 107.555 18.6511 107.367 18.2713C107.15 17.8358 106.997 17.2239 106.913 16.4508C106.824 15.6183 106.777 14.5498 106.777 13.2742V3.45459H103.069V13.2723C103.069 15.2155 103.203 16.8211 103.465 18.0488C103.746 19.3666 104.26 20.4063 104.99 21.1333C105.723 21.8623 106.735 22.3668 108.001 22.6296C109.171 22.8732 110.674 22.9979 112.465 22.9979H116.685C118.476 22.9979 119.978 22.8751 121.149 22.6296C122.412 22.3668 123.426 21.8623 124.159 21.1333C124.89 20.4044 125.405 19.3666 125.686 18.0488C125.948 16.8211 126.08 15.2136 126.08 13.2723V6.82498H140.767C142.126 6.82498 143.227 6.86143 144.035 6.93049C144.762 6.99379 145.299 7.11656 145.629 7.29112C145.882 7.4254 146.032 7.60188 146.115 7.86085C146.231 8.22723 146.291 8.74325 146.291 9.39546V9.85584C146.291 10.462 146.233 10.9531 146.117 11.3137C146.034 11.5727 145.875 11.7607 145.615 11.9045C145.285 12.0887 144.748 12.2211 144.022 12.2997C143.219 12.3841 142.124 12.4282 140.767 12.4282H131.385C129.784 12.4282 128.48 13.7173 128.48 15.3037V22.6276H132.188V15.7986H141.13C142.913 15.7986 144.38 15.6989 145.489 15.5051C146.683 15.296 147.586 14.9623 148.253 14.4846C148.953 13.982 149.43 13.3126 149.674 12.4935C149.891 11.7645 150.002 10.8783 150.002 9.85968V9.39929C150.002 8.33466 149.895 7.42348 149.682 6.6907L149.68 6.68878Z" fill="#2D2D2D"/>
<path d="M136.962 17.1279H136.768V19.7675C136.768 20.1991 136.677 20.5117 136.499 20.6978C136.321 20.8839 136.065 20.9741 135.72 20.9741C135.375 20.9741 135.125 20.8839 134.946 20.6978C134.768 20.5117 134.677 20.1991 134.677 19.7675V17.1279H133.661V19.7924C133.661 20.4715 133.847 21.0009 134.214 21.3635C134.58 21.726 135.086 21.9102 135.714 21.9102C136.342 21.9102 136.852 21.726 137.218 21.3635C137.582 21.0009 137.767 20.4715 137.767 19.7924V17.1279H136.964H136.962Z" fill="#2D2D2D"/>
<path d="M141.858 19.8174C141.746 19.6467 141.594 19.5086 141.41 19.4069C141.242 19.3129 141.052 19.2362 140.848 19.1786C140.652 19.123 140.459 19.0731 140.271 19.0309C140.09 18.9887 139.922 18.9427 139.772 18.8909C139.643 18.8468 139.536 18.7873 139.458 18.7144C139.422 18.6799 139.373 18.6185 139.373 18.488C139.373 18.3998 139.398 18.3212 139.449 18.2502C139.499 18.1792 139.586 18.1178 139.71 18.0699C139.846 18.0162 140.026 17.9893 140.249 17.9893C140.428 17.9893 140.616 18.0162 140.807 18.066C140.995 18.1159 141.178 18.1984 141.346 18.3116L141.542 18.442L141.631 18.2252L141.839 17.7284L141.899 17.5845L141.769 17.4963C141.567 17.3601 141.327 17.2546 141.058 17.1836C140.79 17.1127 140.519 17.0781 140.247 17.0781C139.836 17.0781 139.487 17.1414 139.214 17.2661C138.931 17.3946 138.718 17.573 138.578 17.7917C138.441 18.0104 138.369 18.2521 138.369 18.5111C138.369 18.77 138.427 19.006 138.545 19.1844C138.658 19.357 138.809 19.4971 138.993 19.5987C139.162 19.6927 139.35 19.7695 139.553 19.8289C139.747 19.8865 139.943 19.9363 140.135 19.9785C140.315 20.0188 140.482 20.0649 140.629 20.1186C140.761 20.1646 140.868 20.226 140.945 20.2989C141.003 20.3526 141.03 20.4236 141.03 20.5195C141.03 20.6077 141.005 20.6825 140.955 20.7516C140.902 20.8226 140.815 20.8801 140.693 20.9242C140.555 20.9741 140.369 20.9991 140.139 20.9991C139.883 20.9991 139.633 20.9549 139.396 20.8686C139.16 20.7823 138.964 20.673 138.817 20.5444L138.623 20.3775L138.512 20.6077L138.28 21.0931L138.22 21.2197L138.324 21.3156C138.52 21.4959 138.786 21.6417 139.117 21.751C139.441 21.8584 139.784 21.9141 140.139 21.9141C140.55 21.9141 140.899 21.8508 141.176 21.7261C141.463 21.5976 141.68 21.4211 141.821 21.2005C141.963 20.9818 142.034 20.7401 142.034 20.485C142.034 20.2298 141.974 19.9958 141.858 19.8212V19.8174Z" fill="#2D2D2D"/>
<path d="M145.123 17.2392L145.071 17.126H144.198L144.146 17.2392L142.155 21.5898L142.031 21.8603H143.105L143.156 21.7452L143.588 20.7726H145.672L146.104 21.7452L146.154 21.8603H147.242L147.118 21.5898L145.121 17.2392H145.123ZM143.983 19.8921L144.634 18.4266L145.286 19.8921H143.983Z" fill="#2D2D2D"/>
</g>
<defs>
<clipPath id="clip0_473_1123">
<rect width="150" height="23" fill="white"/>
</clipPath>
</defs>
</svg>
