<svg width="150" height="23" viewBox="0 0 150 23" fill="none" xmlns="http://www.w3.org/2000/svg">
<g clip-path="url(#clip0_309_1854)">
<path d="M25.999 8.3681H22.7808L15.7794 19.1593L15.6567 18.9589L15.6002 19.099L0 0.00198364L13.9697 22.6267H17.5561L24.386 12.1603L31.216 22.6267H34.8531L25.999 8.3681Z" fill="#2F80FF"/>
<path d="M43.7133 3.57634L34.2242 19.8943L34.0742 20.1413L35.2061 22.6266H36.5035L47.5588 3.57634H43.7133Z" fill="#2D2D2D"/>
<path d="M49.6547 3.57634L38.5215 22.6266H42.4098L51.4645 6.71509L60.5211 22.6266H64.4095L53.2782 3.57634H49.6547Z" fill="#2D2D2D"/>
<path d="M57.3281 6.53423H66.3263V22.6266H69.6634V6.53423H78.6615V3.57634H57.3281V6.53423Z" fill="#2D2D2D"/>
<path d="M80.2764 6.53423H89.2726V22.6266H92.6096V6.53423H101.608V3.57634H80.2764V6.53423Z" fill="#2D2D2D"/>
<path d="M149.687 6.71315C149.459 5.91388 149.011 5.27018 148.359 4.79568C147.727 4.34061 146.853 4.02752 145.684 3.83888C144.585 3.66386 143.126 3.5744 141.351 3.5744H125.299C123.825 3.5744 122.625 4.77234 122.625 6.24448V13.3329C122.625 14.6398 122.578 15.7288 122.486 16.5728C122.401 17.3779 122.241 18.0216 122.013 18.4844C121.804 18.9064 121.518 19.2118 121.136 19.416C120.721 19.6376 120.162 19.7874 119.476 19.8574C118.736 19.9332 117.805 19.9721 116.714 19.9721H112.473C111.39 19.9721 110.463 19.9332 109.717 19.8574C109.027 19.7874 108.466 19.6396 108.051 19.416C107.669 19.2118 107.383 18.9064 107.174 18.4844C106.946 18.0216 106.787 17.3798 106.701 16.5728C106.609 15.723 106.563 14.632 106.563 13.331V3.57635H103.226V13.3349C103.226 15.2912 103.358 16.9053 103.619 18.1363C103.894 19.4354 104.392 20.4564 105.102 21.1662C105.811 21.8779 106.796 22.3719 108.03 22.6305C109.194 22.8756 110.691 23 112.477 23H116.718C118.504 23 120 22.8756 121.165 22.6305C122.399 22.3719 123.382 21.8779 124.091 21.1662C124.801 20.4544 125.299 19.4354 125.574 18.1344C125.833 16.9014 125.965 15.2873 125.965 13.3329V6.6023H140.921C142.292 6.6023 143.405 6.63925 144.223 6.71121C144.981 6.77927 145.544 6.90957 145.9 7.0982C146.2 7.25961 146.385 7.47937 146.483 7.78857C146.605 8.17946 146.668 8.72203 146.668 9.40268V9.86941C146.668 10.5053 146.605 11.0207 146.483 11.4057C146.385 11.713 146.19 11.9463 145.888 12.1155C145.534 12.3158 144.969 12.4578 144.213 12.5395C143.401 12.627 142.292 12.6698 140.921 12.6698H131.492C129.99 12.6698 128.767 13.8891 128.767 15.3904V22.6208H132.104V15.6977H141.285C143.066 15.6977 144.529 15.5985 145.633 15.4021C146.804 15.1959 147.687 14.8673 148.329 14.4006C148.996 13.9163 149.452 13.2726 149.685 12.4831C149.898 11.7616 150.005 10.8826 150.005 9.86746V9.40073C150.005 8.34087 149.9 7.43464 149.691 6.70926L149.687 6.71315Z" fill="#2D2D2D"/>
<path d="M136.135 22.4199C135.539 22.4199 135.072 22.2485 134.732 21.9056C134.392 21.5627 134.222 21.0604 134.222 20.4006V17.8072H134.869V20.3747C134.869 20.883 134.979 21.2538 135.201 21.489C135.423 21.7242 135.737 21.8418 136.143 21.8418C136.548 21.8418 136.869 21.7242 137.091 21.489C137.312 21.2538 137.423 20.883 137.423 20.3747V17.8072H138.05V20.4006C138.05 21.0604 137.88 21.5627 137.542 21.9056C137.203 22.2485 136.734 22.4199 136.135 22.4199Z" fill="#F4F4F5"/>
<path d="M140.693 22.4199C140.349 22.4199 140.018 22.3661 139.704 22.2604C139.389 22.1548 139.142 22.0153 138.96 21.8458L139.199 21.3375C139.371 21.489 139.591 21.6146 139.858 21.7162C140.125 21.8159 140.404 21.8657 140.693 21.8657C140.956 21.8657 141.17 21.8358 141.334 21.7741C141.498 21.7142 141.619 21.6305 141.696 21.5229C141.773 21.4172 141.813 21.2956 141.813 21.1621C141.813 21.0066 141.762 20.879 141.661 20.7833C141.56 20.6876 141.427 20.6099 141.267 20.5521C141.105 20.4943 140.927 20.4425 140.733 20.3986C140.539 20.3547 140.343 20.3049 140.147 20.2451C139.951 20.1873 139.771 20.1115 139.611 20.0198C139.451 19.9281 139.318 19.8066 139.219 19.6511C139.12 19.4976 139.071 19.2982 139.071 19.055C139.071 18.8118 139.132 18.6045 139.255 18.4072C139.377 18.2098 139.567 18.0504 139.825 17.9307C140.082 17.8111 140.408 17.7513 140.804 17.7513C141.067 17.7513 141.328 17.7852 141.587 17.855C141.847 17.9248 142.07 18.0244 142.26 18.154L142.046 18.6763C141.853 18.5467 141.647 18.451 141.431 18.3932C141.215 18.3354 141.006 18.3055 140.804 18.3055C140.549 18.3055 140.341 18.3374 140.177 18.4032C140.013 18.469 139.894 18.5547 139.819 18.6643C139.743 18.774 139.706 18.8956 139.706 19.0291C139.706 19.1906 139.757 19.3182 139.858 19.4138C139.959 19.5095 140.092 19.5853 140.252 19.6411C140.414 19.6969 140.592 19.7487 140.786 19.7946C140.98 19.8404 141.176 19.8923 141.372 19.9481C141.568 20.0039 141.748 20.0777 141.908 20.1694C142.07 20.261 142.201 20.3826 142.3 20.5341C142.399 20.6856 142.448 20.881 142.448 21.1202C142.448 21.3594 142.385 21.5647 142.26 21.7621C142.135 21.9594 141.942 22.1189 141.68 22.2385C141.419 22.3581 141.091 22.4179 140.693 22.4179V22.4199Z" fill="#F4F4F5"/>
<path d="M142.706 22.3681L144.756 17.8072H145.397L147.455 22.3681H146.776L144.946 18.172H145.205L143.375 22.3681H142.708H142.706ZM143.579 21.2279L143.753 20.7056H146.301L146.489 21.2279H143.579Z" fill="#F4F4F5"/>
</g>
<defs>
<clipPath id="clip0_309_1854">
<rect width="150" height="23" fill="white"/>
</clipPath>
</defs>
</svg>
