<svg width="150" height="23" viewBox="0 0 150 23" fill="none" xmlns="http://www.w3.org/2000/svg">
<g clip-path="url(#clip0_263_992)">
<path d="M25.999 8.3681H22.7808L15.7794 19.1593L15.6567 18.9589L15.6002 19.099L0 0.00198364L13.9697 22.6267H17.5561L24.386 12.1603L31.216 22.6267H34.8531L25.999 8.3681Z" fill="#2F80FF"/>
<path d="M43.7128 3.57634L34.2237 19.8943L34.0737 20.1413L35.2056 22.6266H36.503L47.5583 3.57634H43.7128Z" fill="#F4F4F5"/>
<path d="M49.6543 3.57634L38.521 22.6266H42.4094L51.464 6.71509L60.5206 22.6266H64.409L53.2777 3.57634H49.6543Z" fill="#F4F4F5"/>
<path d="M57.3281 6.53423H66.3263V22.6266H69.6634V6.53423H78.6615V3.57634H57.3281V6.53423Z" fill="#F4F4F5"/>
<path d="M80.2764 6.53423H89.2726V22.6266H92.6096V6.53423H101.608V3.57634H80.2764V6.53423Z" fill="#F4F4F5"/>
<path d="M149.686 6.71315C149.458 5.91388 149.01 5.27018 148.358 4.79568C147.726 4.34061 146.852 4.02752 145.683 3.83888C144.584 3.66386 143.125 3.5744 141.35 3.5744H125.298C123.824 3.5744 122.624 4.77234 122.624 6.24448V13.3329C122.624 14.6398 122.577 15.7288 122.485 16.5728C122.4 17.3779 122.24 18.0216 122.012 18.4844C121.803 18.9064 121.517 19.2118 121.135 19.416C120.72 19.6376 120.161 19.7874 119.475 19.8574C118.735 19.9332 117.804 19.9721 116.713 19.9721H112.472C111.389 19.9721 110.462 19.9332 109.716 19.8574C109.026 19.7874 108.465 19.6396 108.05 19.416C107.668 19.2118 107.382 18.9064 107.173 18.4844C106.945 18.0216 106.786 17.3798 106.7 16.5728C106.608 15.723 106.562 14.632 106.562 13.331V3.57635H103.225V13.3349C103.225 15.2912 103.357 16.9053 103.618 18.1363C103.893 19.4354 104.392 20.4564 105.101 21.1662C105.81 21.8779 106.795 22.3719 108.029 22.6305C109.194 22.8756 110.69 23 112.476 23H116.717C118.503 23 119.999 22.8756 121.164 22.6305C122.398 22.3719 123.381 21.8779 124.09 21.1662C124.8 20.4544 125.298 19.4354 125.573 18.1344C125.832 16.9014 125.965 15.2873 125.965 13.3329V6.6023H140.92C142.291 6.6023 143.404 6.63925 144.222 6.71121C144.98 6.77927 145.543 6.90957 145.899 7.0982C146.199 7.25961 146.384 7.47937 146.482 7.78857C146.604 8.17946 146.667 8.72203 146.667 9.40268V9.86941C146.667 10.5053 146.604 11.0207 146.482 11.4057C146.384 11.713 146.189 11.9463 145.888 12.1155C145.533 12.3158 144.968 12.4578 144.212 12.5395C143.4 12.627 142.291 12.6698 140.92 12.6698H131.491C129.989 12.6698 128.766 13.8891 128.766 15.3904V22.6208H132.103V15.6977H141.284C143.065 15.6977 144.528 15.5985 145.632 15.4021C146.803 15.1959 147.686 14.8673 148.328 14.4006C148.995 13.9163 149.451 13.2726 149.684 12.4831C149.897 11.7616 150.004 10.8826 150.004 9.86746V9.40073C150.004 8.34087 149.899 7.43464 149.69 6.70926L149.686 6.71315Z" fill="#F4F4F5"/>
<path d="M136.134 22.4199C135.539 22.4199 135.072 22.2485 134.732 21.9056C134.391 21.5627 134.221 21.0604 134.221 20.4006V17.8072H134.868V20.3747C134.868 20.883 134.979 21.2538 135.201 21.489C135.422 21.7242 135.737 21.8418 136.142 21.8418C136.548 21.8418 136.868 21.7242 137.09 21.489C137.312 21.2538 137.422 20.883 137.422 20.3747V17.8072H138.05V20.4006C138.05 21.0604 137.879 21.5627 137.541 21.9056C137.203 22.2485 136.734 22.4199 136.134 22.4199Z" fill="#F4F4F5"/>
<path d="M140.693 22.4199C140.349 22.4199 140.018 22.3661 139.704 22.2604C139.389 22.1548 139.142 22.0153 138.96 21.8458L139.199 21.3375C139.371 21.489 139.591 21.6146 139.858 21.7162C140.125 21.8159 140.404 21.8657 140.693 21.8657C140.956 21.8657 141.17 21.8358 141.334 21.7741C141.498 21.7142 141.619 21.6305 141.696 21.5229C141.773 21.4172 141.813 21.2956 141.813 21.1621C141.813 21.0066 141.761 20.879 141.66 20.7833C141.559 20.6876 141.427 20.6099 141.267 20.5521C141.104 20.4943 140.926 20.4425 140.732 20.3986C140.539 20.3547 140.343 20.3049 140.147 20.2451C139.951 20.1873 139.771 20.1115 139.611 20.0198C139.45 19.9281 139.318 19.8066 139.219 19.6511C139.12 19.4976 139.071 19.2982 139.071 19.055C139.071 18.8118 139.132 18.6045 139.255 18.4072C139.377 18.2098 139.567 18.0504 139.824 17.9307C140.082 17.8111 140.408 17.7513 140.804 17.7513C141.067 17.7513 141.328 17.7852 141.587 17.855C141.846 17.9248 142.07 18.0244 142.26 18.154L142.046 18.6763C141.852 18.5467 141.647 18.451 141.431 18.3932C141.215 18.3354 141.006 18.3055 140.804 18.3055C140.548 18.3055 140.341 18.3374 140.177 18.4032C140.012 18.469 139.894 18.5547 139.818 18.6643C139.743 18.774 139.706 18.8956 139.706 19.0291C139.706 19.1906 139.757 19.3182 139.858 19.4138C139.959 19.5095 140.091 19.5853 140.252 19.6411C140.414 19.6969 140.592 19.7487 140.786 19.7946C140.98 19.8404 141.176 19.8923 141.372 19.9481C141.567 20.0039 141.747 20.0777 141.908 20.1694C142.07 20.261 142.201 20.3826 142.299 20.5341C142.398 20.6856 142.448 20.881 142.448 21.1202C142.448 21.3594 142.385 21.5647 142.26 21.7621C142.135 21.9594 141.941 22.1189 141.68 22.2385C141.419 22.3581 141.091 22.4179 140.693 22.4179V22.4199Z" fill="#F4F4F5"/>
<path d="M142.705 22.3681L144.755 17.8072H145.396L147.454 22.3681H146.775L144.945 18.172H145.204L143.374 22.3681H142.707H142.705ZM143.578 21.2279L143.752 20.7056H146.3L146.488 21.2279H143.578Z" fill="#F4F4F5"/>
</g>
<defs>
<clipPath id="clip0_263_992">
<rect width="150" height="23" fill="white"/>
</clipPath>
</defs>
</svg>
